<mxfile host="app.diagrams.net" modified="2023-04-19T09:18:23.484Z" agent="Mozilla/5.0 (Windows NT 10.0; Win64; x64) AppleWebKit/537.36 (KHTML, like Gecko) Chrome/112.0.0.0 Safari/537.36" version="21.1.8" etag="vh8eVp5ZuFQCfcPDj9TQ" type="github">
  <diagram name="Page-1" id="TLxQG127nbAxk-rCnO3E">
    <mxGraphModel>
      <root>
        <mxCell id="0" />
        <mxCell id="1" parent="0" />
      </root>
    </mxGraphModel>
  </diagram>
</mxfile>
